<mxfile host="app.diagrams.net" modified="2023-08-08T10:11:45.215Z" agent="Mozilla/5.0 (Windows NT 10.0; Win64; x64) AppleWebKit/537.36 (KHTML, like Gecko) Chrome/115.0.0.0 Safari/537.36" version="21.6.6" etag="XT8F1S7uJMi89_b0DP5B" type="github">
  <diagram name="第 1 页" id="ehpXTzuCTanSFUWW0pt_">
    <mxGraphModel>
      <root>
        <mxCell id="0" />
        <mxCell id="1" parent="0" />
      </root>
    </mxGraphModel>
  </diagram>
</mxfile>
